<svg xmlns="http://www.w3.org/2000/svg" width="705.07" height="96.544" viewBox="0 0 705.07 96.544">
  <g id="Logo-onBlack1" transform="translate(-44 -348.701)">
    <path id="Path_960" data-name="Path 960" d="M78.5,444.844H70.955a2.015,2.015,0,0,1-2.054-2.111V361.4c0-.515-.346-.515-.46-.515H46.054A2.014,2.014,0,0,1,44,358.775v-6.953a2.013,2.013,0,0,1,2.054-2.107h57.224a2.012,2.012,0,0,1,2.053,2.107v6.953a2.013,2.013,0,0,1-2.053,2.11H81.015c-.113,0-.46,0-.46.515v81.333a2.014,2.014,0,0,1-2.053,2.111" fill="#fff"/>
    <path id="Path_961" data-name="Path 961" d="M325.637,443.686,314.3,436.21V350.616l11.34,7.477v85.593" fill="#fff"/>
    <path id="Path_962" data-name="Path 962" d="M445.859,444.844H412.272a2.015,2.015,0,0,1-2.055-2.109V351.823a2.013,2.013,0,0,1,2.055-2.107H443.72c16.657,0,26.21,9.422,26.21,25.851,0,12.691-7.135,18.287-10.2,20.105l-.014.01c7.25,2.9,14.872,10.474,14.872,23.176,0,17-9.933,25.986-28.726,25.986M422.337,402.21c-.115,0-.464,0-.464.513v30.435c0,.513.349.513.464.513h23.522c11.992,0,17.822-4.972,17.822-15.2,0-10.673-8.966-16.256-17.822-16.256H422.337m0-41.326c-.115,0-.464,0-.464.515v28.992c0,.515.349.515.464.515h19.75c10.687,0,17.067-5.588,17.067-14.947,0-13.988-11.813-15.075-15.434-15.075H422.337" fill="#fff"/>
    <path id="Path_963" data-name="Path 963" d="M608.128,444.844h-49.25a2.016,2.016,0,0,1-2.057-2.109V351.821a2.015,2.015,0,0,1,2.057-2.109h47.995a2.014,2.014,0,0,1,2.054,2.109v6.954a2.014,2.014,0,0,1-2.054,2.11H568.929c-.114,0-.459,0-.459.515v30.958c0,.461.262.515.459.515h27.384l-6.58,11.172h-20.8c-.114,0-.459,0-.459.515v28.6c0,.515.345.515.459.515h39.2a2.012,2.012,0,0,1,2.054,2.108v6.954a2.014,2.014,0,0,1-2.054,2.109" fill="#fff"/>
    <path id="Path_964" data-name="Path 964" d="M718.642,445.245c-.285,0-.568,0-.852-.007-12.832-.236-23.095-4.551-28.9-12.155l-.529-.7,10.192-6.407.446.538c3.971,4.785,10.491,7.395,18.853,7.546q.423.012.841.012c6.166,0,11.391-1.853,14.768-5.113a12.687,12.687,0,0,0,3.955-9.1c.169-10.035-7.5-13.894-25.034-20.3-17.638-6.443-25.07-14.809-24.851-27.973a20.648,20.648,0,0,1,6.364-14.821c5.031-4.857,12.445-7.514,20.96-7.514q.383,0,.768.007c10.733.193,19.844,4.473,25,11.742l.487.688-9.852,6.2-.44-.592c-3.2-4.305-8.754-6.746-15.63-6.872-.136,0-.27,0-.4,0-5.1,0-9.454,1.51-12.352,4.308a10.11,10.11,0,0,0-3.24,7.2c-.135,8,5.332,12.647,21.66,18.4,20.549,7.112,28.461,15.6,28.217,30.268a22.792,22.792,0,0,1-7.081,16.334c-5.563,5.371-13.828,8.307-23.342,8.307" fill="#fff"/>
    <path id="Path_965" data-name="Path 965" d="M227.676,443.833h-8.3a2.413,2.413,0,0,1-2.2-1.318L202.424,412.3a.81.81,0,0,0-.792-.473H175.964c-.114,0-.461,0-.461.515v29.385a2,2,0,0,1-1.758,2.069l-.29.039-9.612-6.163V350.81A2.014,2.014,0,0,1,165.9,348.7h32.463c18.99,0,31.748,12.657,31.748,31.5,0,16.683-10.429,24.859-16.646,28.248l-.144.144a.768.768,0,0,0,.077.594l15.876,31.924a1.878,1.878,0,0,1,.059,1.877,1.847,1.847,0,0,1-1.655.849m-51.712-83.96c-.114,0-.461,0-.461.515v39.618c0,.515.347.515.461.515H200c7.441,0,18.452-6.459,18.452-20.324,0-12.726-7.84-20.324-20.971-20.324H175.964" fill="#fff"/>
  </g>
</svg>
